# xmcd
#
# Track frame offsets: 
#        150
#        15483
#        27781
#        45266
#        65042
#
# Disc length: 1073 seconds
#
# Revision: 0
# Processed by: cddbd v1.5.2PL0 Copyright (c) Steve Scherf et al.
# Submitted via: ExactAudioCopy v0.95b4
#
DISCID=32042f05
DTITLE=James Pottschmidt - It Doesn't Get Much Better Than This!
DYEAR=2002
DGENRE=Blues
TTITLE0=The Means
TTITLE1=Pictures in the Sand
TTITLE2=Amy's Song
TTITLE3=It Doesn't Get Much Better Than This
TTITLE4=Paradise Lost
EXTD=
EXTT0=
EXTT1=
EXTT2=
EXTT3=
EXTT4=
PLAYORDER=
